<mxfile host="Electron" modified="2024-11-11T12:44:52.082Z" agent="Mozilla/5.0 (Macintosh; Intel Mac OS X 10_15_7) AppleWebKit/537.36 (KHTML, like Gecko) draw.io/21.6.8 Chrome/114.0.5735.289 Electron/25.5.0 Safari/537.36" etag="ccr4ub3rA86haFB8lqb2" version="21.6.8" type="device">
  <diagram name="Страница — 1" id="dimClLYE7lKErFlq1Ljw">
    <mxGraphModel dx="1546" dy="894" grid="1" gridSize="10" guides="1" tooltips="1" connect="1" arrows="1" fold="1" page="1" pageScale="1" pageWidth="827" pageHeight="1169" math="0" shadow="0">
      <root>
        <mxCell id="0" />
        <mxCell id="1" parent="0" />
        <mxCell id="9CtZHUtkr0Dy_6axMzHA-1" value="Load Balancer" style="swimlane;whiteSpace=wrap;html=1;" vertex="1" parent="1">
          <mxGeometry x="120" y="80" width="160" height="80" as="geometry" />
        </mxCell>
        <mxCell id="9CtZHUtkr0Dy_6axMzHA-2" value="" style="endArrow=classic;html=1;rounded=0;entryX=0;entryY=0.25;entryDx=0;entryDy=0;" edge="1" parent="1" target="9CtZHUtkr0Dy_6axMzHA-1">
          <mxGeometry width="50" height="50" relative="1" as="geometry">
            <mxPoint x="40" y="80" as="sourcePoint" />
            <mxPoint x="440" y="430" as="targetPoint" />
          </mxGeometry>
        </mxCell>
        <mxCell id="9CtZHUtkr0Dy_6axMzHA-3" value="" style="endArrow=classic;html=1;rounded=0;entryX=0;entryY=0.5;entryDx=0;entryDy=0;" edge="1" parent="1" target="9CtZHUtkr0Dy_6axMzHA-1">
          <mxGeometry width="50" height="50" relative="1" as="geometry">
            <mxPoint x="40" y="120" as="sourcePoint" />
            <mxPoint x="130" y="130" as="targetPoint" />
          </mxGeometry>
        </mxCell>
        <mxCell id="9CtZHUtkr0Dy_6axMzHA-4" value="" style="endArrow=classic;html=1;rounded=0;" edge="1" parent="1">
          <mxGeometry width="50" height="50" relative="1" as="geometry">
            <mxPoint x="40" y="160" as="sourcePoint" />
            <mxPoint x="120" y="140" as="targetPoint" />
          </mxGeometry>
        </mxCell>
        <mxCell id="9CtZHUtkr0Dy_6axMzHA-5" value="RPC Gateway" style="swimlane;whiteSpace=wrap;html=1;" vertex="1" parent="1">
          <mxGeometry x="240" y="200" width="160" height="80" as="geometry" />
        </mxCell>
        <mxCell id="9CtZHUtkr0Dy_6axMzHA-6" value="Static Gateway" style="swimlane;whiteSpace=wrap;html=1;" vertex="1" parent="1">
          <mxGeometry x="240" y="320" width="160" height="80" as="geometry" />
        </mxCell>
        <mxCell id="9CtZHUtkr0Dy_6axMzHA-7" value="" style="endArrow=classic;html=1;rounded=0;exitX=0.25;exitY=1;exitDx=0;exitDy=0;entryX=0;entryY=0.5;entryDx=0;entryDy=0;" edge="1" parent="1" source="9CtZHUtkr0Dy_6axMzHA-1" target="9CtZHUtkr0Dy_6axMzHA-5">
          <mxGeometry width="50" height="50" relative="1" as="geometry">
            <mxPoint x="390" y="480" as="sourcePoint" />
            <mxPoint x="440" y="430" as="targetPoint" />
            <Array as="points">
              <mxPoint x="160" y="240" />
            </Array>
          </mxGeometry>
        </mxCell>
        <mxCell id="9CtZHUtkr0Dy_6axMzHA-8" value="" style="endArrow=classic;html=1;rounded=0;exitX=0.25;exitY=1;exitDx=0;exitDy=0;entryX=0;entryY=0.5;entryDx=0;entryDy=0;" edge="1" parent="1" source="9CtZHUtkr0Dy_6axMzHA-1" target="9CtZHUtkr0Dy_6axMzHA-6">
          <mxGeometry width="50" height="50" relative="1" as="geometry">
            <mxPoint x="390" y="480" as="sourcePoint" />
            <mxPoint x="440" y="430" as="targetPoint" />
            <Array as="points">
              <mxPoint x="160" y="360" />
            </Array>
          </mxGeometry>
        </mxCell>
        <mxCell id="9CtZHUtkr0Dy_6axMzHA-9" value="/rpc" style="text;html=1;strokeColor=none;fillColor=none;align=center;verticalAlign=middle;whiteSpace=wrap;rounded=0;" vertex="1" parent="1">
          <mxGeometry x="170" y="210" width="60" height="30" as="geometry" />
        </mxCell>
        <mxCell id="9CtZHUtkr0Dy_6axMzHA-10" value="/static" style="text;html=1;strokeColor=none;fillColor=none;align=center;verticalAlign=middle;whiteSpace=wrap;rounded=0;" vertex="1" parent="1">
          <mxGeometry x="170" y="330" width="60" height="30" as="geometry" />
        </mxCell>
      </root>
    </mxGraphModel>
  </diagram>
</mxfile>
